<svg xmlns="http://www.w3.org/2000/svg" xmlns:xlink="http://www.w3.org/1999/xlink" version="1.1" x="0px" y="0px" viewBox="0 0 100 125" enable-background="new 0 0 100 100" xml:space="preserve"><path d="M61.213,62.293c-0.957-0.151-0.975-2.748-0.975-2.748s2.799-2.748,3.408-6.442c1.641,0,2.654-3.93,1.014-5.312  c0.066-1.456,2.109-11.421-8.225-11.421c-10.332,0-8.291,9.965-8.225,11.421c-1.643,1.382-0.629,5.312,1.014,5.312  c0.607,3.694,3.408,6.442,3.408,6.442s-0.02,2.597-0.975,2.748c-3.068,0.482-14.525,5.494-14.525,10.99h19.303H75.74  C75.74,67.787,64.281,62.775,61.213,62.293z M41.557,63.168c2.219-1.364,4.908-2.628,7.113-3.39  c-0.789-1.128-1.672-2.661-2.227-4.477c-0.775-0.633-1.404-1.535-1.809-2.645c-0.406-1.112-0.561-2.355-0.432-3.504  c0.088-0.823,0.324-1.592,0.684-2.267c-0.219-2.343-0.373-6.939,2.639-10.293c1.166-1.302,2.639-2.235,4.408-2.8  c-0.316-3.256-1.967-7.077-8.367-7.077c-10.338,0-8.295,9.966-8.227,11.421c-1.641,1.382-0.627,5.312,1.016,5.312  c0.607,3.694,3.41,6.442,3.41,6.442s-0.025,2.597-0.977,2.748c-3.068,0.483-14.529,5.496-14.529,10.99h16.57  C41.066,63.476,41.309,63.322,41.557,63.168z"/></svg>